<svg xmlns="http://www.w3.org/2000/svg"><symbol id="icon--arrow" viewBox="0 0 1024 1024"><path d="M658 316L462 512l196 196-60 60-256-256 256-256z"/></symbol><symbol id="icon--edit" viewBox="0 0 24 24"><path d="M20.72 7.03l-1.83 1.83-3.75-3.75 1.83-1.83q.28-.28.702-.28t.703.28l2.344 2.345q.28.28.28.703t-.28.703zM3 17.25L14.063 6.187l3.75 3.75L6.75 21H3v-3.75z"/></symbol><symbol id="icon--remove" viewBox="0 0 24 24"><path d="M18.984 6.422L13.406 12l5.578 5.578-1.406 1.406L12 13.406l-5.578 5.578-1.406-1.406L10.594 12 5.016 6.422l1.406-1.406L12 10.594l5.578-5.578z"/></symbol><symbol id="icon--save" viewBox="0 0 24 24"><path d="M9 16.172L19.594 5.578 21 6.984l-12 12-5.578-5.578L4.828 12z"/></symbol><symbol id="icon--icons"/></svg>