<svg xmlns="http://www.w3.org/2000/svg" viewBox="0 0 154.55 91.19"><title>logo-v2</title><g id="Layer_2" data-name="Layer 2"><g id="Layer_1-2" data-name="Layer 1"><path d="M48.21,35.87,88.52,76.18a3,3,0,0,1,0,4.23l-9.9,9.9a3,3,0,0,1-4.25,0h0L34,50,15,69.11a3,3,0,0,1-4.24,0l-9.9-9.9A3,3,0,0,1,.88,55L53.16,2.64a3,3,0,0,1,4.24,0l9.9,9.9a3,3,0,0,1,0,4.24Z" opacity="0.8" style="isolation:isolate"/><path d="M66,36.24A3,3,0,0,1,66,32l9.9-9.9a3,3,0,0,1,4.24,0L99.22,41.19,139.53.88a3,3,0,0,1,4.24,0l9.9,9.9a3,3,0,0,1,0,4.24h0L101.34,67.38a3,3,0,0,1-4.24,0Z" fill="#ff6e0b"/></g></g></svg>